<?xml version="1.0" encoding="UTF-8"?>
<svg xmlns="http://www.w3.org/2000/svg" version="1.1" viewBox="0 0 115.16 65.1">
  <defs>
    <style>
      .cls-1 {
        fill: #231f20;
      }
    </style>
  </defs>
  <!-- Generator: Adobe Illustrator 28.7.5, SVG Export Plug-In . SVG Version: 1.2.0 Build 176)  -->
  <g>
    <g id="Layer_1">
      <g>
        <path class="cls-1" d="M10.46,14.53c-.64-.34-1.13-.8-1.48-1.41-.35-.6-.52-1.3-.52-2.09v-3.81c0-.79.17-1.49.52-2.09.35-.6.84-1.07,1.48-1.4.64-.33,1.38-.49,2.22-.49s1.56.16,2.2.47c.63.31,1.12.76,1.48,1.33.35.58.53,1.24.53,2,0,.1-.06.16-.19.18l-1.9.12h-.03c-.11,0-.16-.06-.16-.18,0-.58-.18-1.05-.53-1.4-.35-.35-.81-.53-1.39-.53s-1.05.18-1.4.53c-.35.35-.53.82-.53,1.4v3.97c0,.57.18,1.03.53,1.38s.82.53,1.4.53,1.03-.18,1.39-.53c.35-.35.53-.81.53-1.38,0-.12.06-.18.19-.18l1.9.08c.05,0,.1.02.14.05s.06.07.06.12c0,.76-.18,1.43-.53,2.01-.35.58-.84,1.03-1.48,1.35-.63.32-1.36.48-2.2.48s-1.58-.17-2.22-.5Z"/>
        <path class="cls-1" d="M24.96,3.42s.08-.06.14-.06h1.9c.05,0,.1.02.14.06s.06.09.06.14v11.14c0,.06-.02.1-.06.14s-.08.06-.14.06h-1.9c-.05,0-.1-.02-.14-.06s-.06-.09-.06-.14v-4.55c0-.05-.03-.08-.08-.08h-3.58c-.05,0-.08.03-.08.08v4.55c0,.06-.02.1-.06.14s-.08.06-.14.06h-1.9c-.05,0-.1-.02-.14-.06s-.06-.09-.06-.14V3.56c0-.06.02-.1.06-.14s.08-.06.14-.06h1.9c.05,0,.1.02.14.06s.06.09.06.14v4.43c0,.06.03.08.08.08h3.58c.05,0,.08-.03.08-.08V3.56c0-.06.02-.1.06-.14Z"/>
        <path class="cls-1" d="M35.37,14.75l-2.03-4.56s-.05-.07-.1-.07h-1.51c-.05,0-.08.03-.08.08v4.5c0,.06-.02.1-.06.14s-.08.06-.14.06h-1.9c-.05,0-.1-.02-.14-.06s-.06-.09-.06-.14V3.56c0-.06.02-.1.06-.14s.08-.06.14-.06h4.64c.69,0,1.3.14,1.82.43.52.29.93.69,1.22,1.22.29.53.43,1.14.43,1.83,0,.75-.18,1.39-.55,1.92s-.88.91-1.54,1.13c-.05.02-.07.06-.05.11l2.21,4.66s.03.08.03.1c0,.09-.06.13-.18.13h-1.99c-.11,0-.18-.05-.23-.15ZM31.66,5.44v2.82c0,.06.03.08.08.08h2.12c.45,0,.82-.14,1.11-.41.29-.27.43-.63.43-1.07s-.14-.8-.43-1.08c-.29-.28-.66-.42-1.11-.42h-2.12c-.05,0-.08.03-.08.08Z"/>
        <path class="cls-1" d="M39.71,14.84s-.06-.09-.06-.14V3.56c0-.06.02-.1.06-.14s.08-.06.14-.06h1.9c.05,0,.1.02.14.06s.06.09.06.14v11.14c0,.06-.02.1-.06.14s-.08.06-.14.06h-1.9c-.05,0-.1-.02-.14-.06Z"/>
        <path class="cls-1" d="M45.86,14.61c-.65-.28-1.15-.68-1.5-1.2-.35-.52-.53-1.13-.53-1.82v-.36c0-.05.02-.1.06-.14s.08-.06.14-.06h1.85c.05,0,.1.02.14.06.04.04.06.09.06.14v.25c0,.44.2.81.6,1.11.4.3.94.45,1.62.45.57,0,1-.12,1.28-.37s.42-.55.42-.91c0-.26-.09-.49-.26-.67-.17-.18-.41-.34-.71-.48-.3-.14-.77-.33-1.42-.57-.72-.25-1.34-.51-1.84-.77-.5-.26-.92-.62-1.26-1.08-.34-.46-.51-1.02-.51-1.69s.17-1.24.5-1.73c.33-.49.8-.87,1.39-1.14.59-.26,1.28-.4,2.06-.4.82,0,1.55.15,2.2.44.64.3,1.15.71,1.51,1.24.36.53.54,1.15.54,1.85v.25c0,.06-.02.1-.06.14s-.08.06-.14.06h-1.86c-.05,0-.1-.02-.14-.06-.04-.04-.06-.08-.06-.14v-.13c0-.46-.19-.85-.56-1.18-.37-.32-.88-.49-1.53-.49-.51,0-.91.11-1.19.33-.29.22-.43.52-.43.91,0,.27.08.51.25.69.17.19.42.35.75.5s.84.35,1.53.6c.77.29,1.37.54,1.81.76.44.22.83.55,1.18.98s.53,1,.53,1.69c0,1.03-.37,1.85-1.12,2.45s-1.76.9-3.03.9c-.86,0-1.62-.14-2.27-.42Z"/>
        <path class="cls-1" d="M62.05,3.42s.06.09.06.14v1.61c0,.05-.02.1-.06.14s-.08.06-.14.06h-2.9c-.05,0-.08.03-.08.08v9.24c0,.06-.02.1-.06.14-.04.04-.08.06-.14.06h-1.9c-.05,0-.1-.02-.14-.06-.04-.04-.06-.09-.06-.14V5.46c0-.05-.03-.08-.08-.08h-2.82c-.05,0-.1-.02-.14-.06s-.06-.09-.06-.14v-1.61c0-.06.02-.1.06-.14s.08-.06.14-.06h8.17c.05,0,.1.02.14.06Z"/>
        <path class="cls-1" d="M65.24,14.55c-.64-.35-1.14-.84-1.5-1.47s-.53-1.36-.53-2.18v-3.53c0-.81.18-1.53.53-2.16.36-.63.86-1.11,1.5-1.46.64-.35,1.39-.52,2.23-.52s1.6.17,2.25.52c.64.35,1.14.83,1.5,1.46.36.63.53,1.35.53,2.16v3.53c0,.82-.18,1.55-.53,2.19-.36.64-.86,1.13-1.5,1.47s-1.39.52-2.25.52-1.59-.18-2.23-.53ZM68.91,12.51c.37-.38.55-.9.55-1.53v-3.62c0-.64-.18-1.15-.54-1.54-.36-.39-.85-.58-1.45-.58s-1.07.19-1.43.58c-.36.39-.54.9-.54,1.54v3.62c0,.64.18,1.15.54,1.53.36.38.84.58,1.43.58s1.08-.19,1.44-.58Z"/>
        <path class="cls-1" d="M80.39,3.79c.54.3.96.72,1.26,1.26.3.54.45,1.17.45,1.87s-.15,1.3-.46,1.83c-.31.53-.74.94-1.3,1.23-.56.29-1.2.44-1.92.44h-2.3c-.05,0-.08.03-.08.08v4.2c0,.06-.02.1-.06.14s-.08.06-.14.06h-1.9c-.05,0-.1-.02-.14-.06s-.06-.09-.06-.14V3.55c0-.05.02-.1.06-.14.04-.04.08-.06.14-.06h4.57c.71,0,1.34.15,1.88.44ZM79.37,8.12c.3-.29.45-.67.45-1.14s-.15-.87-.45-1.17c-.3-.3-.7-.44-1.2-.44h-2.06c-.05,0-.08.03-.08.08v3.03c0,.06.03.08.08.08h2.06c.5,0,.9-.15,1.2-.44Z"/>
        <path class="cls-1" d="M89.91,3.42s.08-.06.14-.06h1.9c.05,0,.1.02.14.06.04.04.06.09.06.14v11.14c0,.06-.02.1-.06.14-.04.04-.08.06-.14.06h-1.9c-.05,0-.1-.02-.14-.06-.04-.04-.06-.09-.06-.14v-4.55c0-.05-.03-.08-.08-.08h-3.58c-.05,0-.08.03-.08.08v4.55c0,.06-.02.1-.06.14-.04.04-.08.06-.14.06h-1.9c-.05,0-.1-.02-.14-.06s-.06-.09-.06-.14V3.56c0-.06.02-.1.06-.14s.08-.06.14-.06h1.9c.05,0,.1.02.14.06.04.04.06.09.06.14v4.43c0,.06.03.08.08.08h3.58c.05,0,.08-.03.08-.08V3.56c0-.06.02-.1.06-.14Z"/>
        <path class="cls-1" d="M102.15,5.3s-.08.06-.14.06h-5.32c-.05,0-.08.03-.08.08v2.55c0,.06.03.08.08.08h3.49c.05,0,.1.02.14.06.04.04.06.09.06.14v1.6c0,.06-.02.1-.06.14-.04.04-.08.06-.14.06h-3.49c-.05,0-.08.03-.08.08v2.67c0,.06.03.08.08.08h5.32c.05,0,.1.02.14.06.04.04.06.09.06.14v1.6c0,.06-.02.1-.06.14-.04.04-.08.06-.14.06h-7.49c-.05,0-.1-.02-.14-.06-.04-.04-.06-.09-.06-.14V3.56c0-.06.02-.1.06-.14.04-.04.08-.06.14-.06h7.49c.05,0,.1.02.14.06.04.04.06.09.06.14v1.6c0,.06-.02.1-.06.14Z"/>
        <path class="cls-1" d="M110.12,14.75l-2.03-4.56s-.05-.07-.1-.07h-1.51c-.05,0-.08.03-.08.08v4.5c0,.06-.02.1-.06.14-.04.04-.08.06-.14.06h-1.9c-.05,0-.1-.02-.14-.06-.04-.04-.06-.09-.06-.14V3.56c0-.06.02-.1.06-.14.04-.04.08-.06.14-.06h4.64c.69,0,1.3.14,1.82.43.52.29.93.69,1.22,1.22.29.53.43,1.14.43,1.83,0,.75-.18,1.39-.55,1.92s-.88.91-1.54,1.13c-.05.02-.07.06-.05.11l2.21,4.66s.03.08.03.1c0,.09-.06.13-.18.13h-1.99c-.11,0-.18-.05-.23-.15ZM106.41,5.44v2.82c0,.06.03.08.08.08h2.12c.45,0,.82-.14,1.11-.41.29-.27.43-.63.43-1.07s-.14-.8-.43-1.08c-.29-.28-.66-.42-1.11-.42h-2.12c-.05,0-.08.03-.08.08Z"/>
      </g>
      <g>
        <path class="cls-1" d="M8.54,16.75h9.37l7.17,45.5h-6.92l-1.26-9.04v.13h-7.86l-1.26,8.91H1.37l7.17-45.5ZM16.09,47.17l-3.08-22.49h-.13l-3.02,22.49h6.23Z"/>
        <path class="cls-1" d="M27.16,16.75h6.92v39h11.39v6.5h-18.3V16.75Z"/>
        <path class="cls-1" d="M47.54,16.75h10.57c6.92,0,10.32,3.96,10.32,11.25v23.01c0,7.28-3.4,11.25-10.32,11.25h-10.57V16.75ZM57.98,55.75c2.2,0,3.52-1.17,3.52-4.42v-23.66c0-3.25-1.32-4.42-3.52-4.42h-3.52v32.5h3.52Z"/>
        <path class="cls-1" d="M70.56,16.75h18.87v6.5h-11.95v12.03h9.5v6.5h-9.5v13.98h11.95v6.5h-18.87V16.75Z"/>
        <path class="cls-1" d="M90.87,16.75h8.68l6.73,27.24h.13v-27.24h6.16v45.5h-7.11l-8.3-33.22h-.13v33.22h-6.16V16.75Z"/>
      </g>
    </g>
  </g>
</svg>